# xmcd CD database file
#
# Track frame offsets:
#	150
#	5090
#	19317
#	34706
#	62083
#	84058
#	106183
#	123141
#	144161
#	156787
#	173273
#	191938
#	218742
#	236484
#	262429
#	290111
#	304265
#
# Disc length: 4418 seconds
#
# Revision: 1
# Processed by: cddbd v1.5.2PL0 Copyright (c) Steve Scherf et al.
# Submitted via: CDex 1.70beta3
#
DISCID=e8114011
DTITLE=→Pia-no-jaC← - LIVE@九段会館 ～Jumpin'→JAC←Flash Tour～
DYEAR=2010
DGENRE=Jazz
TTITLE0=OPENING SE Welcome to wonder spot ～ intro
TTITLE1=Chaos in "Em"
TTITLE2=残月
TTITLE3=台風
TTITLE4=Time Limit
TTITLE5=「新世界より」第4楽章
TTITLE6=Pulse of the earth
TTITLE7=Andalucia
TTITLE8=The Last Resort
TTITLE9=輪舞曲～Rondo～
TTITLE10=交響曲第9番ニ短調作品125「合唱」第4楽章
TTITLE11=Spin Doll
TTITLE12=それでも猫は追いかける
TTITLE13=美しく青きドナウ
TTITLE14=Friends
TTITLE15=うさぎDASH
TTITLE16=Jack
EXTD=YEAR: 2010
EXTT0=
EXTT1=
EXTT2=
EXTT3=
EXTT4=
EXTT5=
EXTT6=
EXTT7=
EXTT8=
EXTT9=
EXTT10=
EXTT11=
EXTT12=
EXTT13=
EXTT14=
EXTT15=
EXTT16=
PLAYORDER=
